<svg width="154" height="54" viewBox="0 0 154 54" fill="none" xmlns="http://www.w3.org/2000/svg">
<path d="M121 42.3135C125.946 50.3515 134.77 52.5264 141.075 50.641C145.285 49.1176 148.805 46.1645 151 42.3135" stroke="#05CB95" stroke-width="4" stroke-linecap="round"/>
<path d="M9.06 30.4854C8.78 30.4854 8.55 30.3954 8.37 30.2154C8.21 30.0354 8.13 29.8254 8.13 29.5854V10.4753H9.99V29.5854C9.99 29.8254 9.9 30.0354 9.72 30.2154C9.54 30.3954 9.32 30.4854 9.06 30.4854ZM1.92 11.1954C1.68 11.1954 1.47 11.1154 1.29 10.9554C1.11 10.7954 1.02 10.5854 1.02 10.3254C1.02 10.0854 1.11 9.88535 1.29 9.72535C1.47 9.56535 1.68 9.48535 1.92 9.48535H16.2C16.44 9.48535 16.65 9.56535 16.83 9.72535C17.01 9.88535 17.1 10.0954 17.1 10.3554C17.1 10.6154 17.01 10.8254 16.83 10.9854C16.65 11.1254 16.44 11.1954 16.2 11.1954H1.92ZM23.802 30.7854C22.262 30.7854 20.902 30.4554 19.722 29.7954C18.542 29.1354 17.622 28.2154 16.962 27.0354C16.302 25.8554 15.972 24.4754 15.972 22.8954C15.972 21.1954 16.302 19.7454 16.962 18.5454C17.642 17.3454 18.512 16.4254 19.572 15.7854C20.652 15.1254 21.792 14.7954 22.992 14.7954C23.872 14.7954 24.722 14.9554 25.542 15.2754C26.382 15.5754 27.122 16.0354 27.762 16.6554C28.422 17.2554 28.942 17.9954 29.322 18.8754C29.722 19.7554 29.942 20.7754 29.982 21.9354C29.962 22.1754 29.862 22.3854 29.682 22.5654C29.502 22.7254 29.292 22.8054 29.052 22.8054H17.022L16.662 21.1854H28.482L28.092 21.5454V20.9454C28.012 20.0054 27.712 19.2054 27.192 18.5454C26.672 17.8854 26.042 17.3854 25.302 17.0454C24.562 16.7054 23.792 16.5354 22.992 16.5354C22.392 16.5354 21.772 16.6554 21.132 16.8954C20.512 17.1354 19.942 17.5154 19.422 18.0354C18.922 18.5354 18.512 19.1854 18.192 19.9854C17.872 20.7654 17.712 21.6954 17.712 22.7754C17.712 23.9554 17.952 25.0254 18.432 25.9854C18.912 26.9454 19.602 27.7054 20.502 28.2654C21.422 28.8254 22.512 29.1054 23.772 29.1054C24.472 29.1054 25.102 29.0054 25.662 28.8054C26.222 28.6054 26.712 28.3454 27.132 28.0254C27.552 27.6854 27.902 27.3354 28.182 26.9754C28.402 26.7954 28.622 26.7054 28.842 26.7054C29.042 26.7054 29.212 26.7854 29.352 26.9454C29.512 27.1054 29.592 27.2854 29.592 27.4854C29.592 27.7254 29.492 27.9354 29.292 28.1154C28.692 28.8354 27.912 29.4654 26.952 30.0054C25.992 30.5254 24.942 30.7854 23.802 30.7854ZM40.7348 15.0354C41.9748 15.0354 43.0348 15.3654 43.9148 16.0254C44.7948 16.6654 45.3948 17.6254 45.7148 18.9054L45.2948 19.0254L45.4748 18.4854C45.7348 17.8854 46.1648 17.3254 46.7648 16.8054C47.3848 16.2654 48.0848 15.8354 48.8648 15.5154C49.6448 15.1954 50.4348 15.0354 51.2348 15.0354C52.4948 15.0354 53.5048 15.3054 54.2648 15.8454C55.0448 16.3854 55.6048 17.1154 55.9448 18.0354C56.3048 18.9354 56.4848 19.9554 56.4848 21.0954V29.5854C56.4848 29.8254 56.3948 30.0354 56.2148 30.2154C56.0548 30.3954 55.8448 30.4854 55.5848 30.4854C55.3248 30.4854 55.1048 30.3954 54.9248 30.2154C54.7648 30.0354 54.6848 29.8254 54.6848 29.5854V21.1854C54.6848 20.3654 54.5548 19.6154 54.2948 18.9354C54.0348 18.2554 53.6248 17.7154 53.0648 17.3154C52.5048 16.9154 51.7548 16.7154 50.8148 16.7154C49.9948 16.7154 49.2048 16.9154 48.4448 17.3154C47.7048 17.7154 47.0948 18.2554 46.6148 18.9354C46.1548 19.6154 45.9248 20.3654 45.9248 21.1854V29.5854C45.9248 29.8254 45.8348 30.0354 45.6548 30.2154C45.4948 30.3954 45.2848 30.4854 45.0248 30.4854C44.7648 30.4854 44.5448 30.3954 44.3648 30.2154C44.2048 30.0354 44.1248 29.8254 44.1248 29.5854V21.0954C44.1248 20.2754 44.0048 19.5354 43.7648 18.8754C43.5248 18.2154 43.1348 17.6954 42.5948 17.3154C42.0548 16.9154 41.3248 16.7154 40.4048 16.7154C39.5848 16.7154 38.8048 16.9154 38.0648 17.3154C37.3448 17.6954 36.7548 18.2154 36.2948 18.8754C35.8548 19.5354 35.6348 20.2754 35.6348 21.0954V29.5854C35.6348 29.8254 35.5448 30.0354 35.3648 30.2154C35.1848 30.3954 34.9748 30.4854 34.7348 30.4854C34.4548 30.4854 34.2348 30.3954 34.0748 30.2154C33.9148 30.0354 33.8348 29.8254 33.8348 29.5854V16.1454C33.8348 15.9054 33.9148 15.6954 34.0748 15.5154C34.2548 15.3354 34.4748 15.2454 34.7348 15.2454C34.9948 15.2454 35.2048 15.3354 35.3648 15.5154C35.5448 15.6954 35.6348 15.9054 35.6348 16.1454V18.9354L34.8248 20.0454C34.8848 19.4454 35.0748 18.8454 35.3948 18.2454C35.7348 17.6454 36.1748 17.1054 36.7148 16.6254C37.2548 16.1454 37.8648 15.7654 38.5448 15.4854C39.2448 15.1854 39.9748 15.0354 40.7348 15.0354ZM63.2381 30.4854C62.6781 30.4854 62.1781 30.3154 61.7381 29.9754C61.2981 29.6154 61.0781 29.1754 61.0781 28.6554V11.3153C61.0781 10.7954 61.2481 10.3654 61.5881 10.0254C61.9481 9.66535 62.3881 9.48535 62.9081 9.48535H71.5481C72.5881 9.48535 73.5581 9.76535 74.4581 10.3254C75.3781 10.8654 76.1181 11.6254 76.6781 12.6054C77.2381 13.5654 77.5181 14.6754 77.5181 15.9354C77.5181 16.6954 77.3581 17.4354 77.0381 18.1554C76.7381 18.8754 76.3181 19.5254 75.7781 20.1054C75.2581 20.6854 74.6681 21.1354 74.0081 21.4554L74.0381 20.7654C74.5981 21.0654 75.0581 21.4254 75.4181 21.8454C75.7981 22.2454 76.0881 22.6854 76.2881 23.1654C76.5081 23.6254 76.6381 24.1254 76.6781 24.6654C76.7581 25.1654 76.8081 25.6054 76.8281 25.9854C76.8681 26.3654 76.9281 26.6854 77.0081 26.9454C77.1081 27.2054 77.2881 27.4054 77.5481 27.5454C77.9881 27.8054 78.2581 28.1854 78.3581 28.6854C78.4781 29.1654 78.3681 29.5954 78.0281 29.9754C77.8081 30.2354 77.5281 30.4054 77.1881 30.4854C76.8481 30.5454 76.5081 30.5454 76.1681 30.4854C75.8281 30.4054 75.5481 30.3054 75.3281 30.1854C74.9881 29.9854 74.6481 29.6954 74.3081 29.3154C73.9681 28.9154 73.6881 28.3854 73.4681 27.7254C73.2681 27.0654 73.1681 26.2154 73.1681 25.1754C73.1681 24.8354 73.1081 24.5254 72.9881 24.2454C72.8681 23.9454 72.6981 23.6954 72.4781 23.4954C72.2581 23.2754 71.9781 23.1154 71.6381 23.0154C71.2981 22.8954 70.8981 22.8354 70.4381 22.8354H64.3781L64.8281 22.1454V28.6554C64.8281 29.1754 64.6881 29.6154 64.4081 29.9754C64.1281 30.3154 63.7381 30.4854 63.2381 30.4854ZM64.4081 19.7454H71.3981C71.7581 19.7454 72.1081 19.5854 72.4481 19.2654C72.7881 18.9254 73.0681 18.4754 73.2881 17.9154C73.5081 17.3354 73.6181 16.7054 73.6181 16.0254C73.6181 15.1454 73.3781 14.4154 72.8981 13.8354C72.4381 13.2354 71.9381 12.9354 71.3981 12.9354H64.4681L64.8281 11.9754V20.4654L64.4081 19.7454ZM94.631 14.1354C95.151 14.1354 95.581 14.3054 95.921 14.6454C96.261 14.9854 96.431 15.4254 96.431 15.9654V28.6554C96.431 29.1754 96.261 29.6154 95.921 29.9754C95.581 30.3154 95.151 30.4854 94.631 30.4854C94.111 30.4854 93.681 30.3154 93.341 29.9754C93.001 29.6154 92.831 29.1754 92.831 28.6554V27.1854L93.491 27.4554C93.491 27.7154 93.351 28.0354 93.071 28.4154C92.791 28.7754 92.411 29.1354 91.931 29.4954C91.451 29.8554 90.881 30.1654 90.221 30.4254C89.581 30.6654 88.881 30.7854 88.121 30.7854C86.741 30.7854 85.491 30.4354 84.371 29.7354C83.251 29.0154 82.361 28.0354 81.701 26.7954C81.061 25.5354 80.741 24.0954 80.741 22.4754C80.741 20.8354 81.061 19.3954 81.701 18.1554C82.361 16.8954 83.241 15.9154 84.341 15.2154C85.441 14.4954 86.661 14.1354 88.001 14.1354C88.861 14.1354 89.651 14.2654 90.371 14.5254C91.091 14.7854 91.711 15.1154 92.231 15.5154C92.771 15.9154 93.181 16.3254 93.461 16.7454C93.761 17.1454 93.911 17.4854 93.911 17.7654L92.831 18.1554V15.9654C92.831 15.4454 93.001 15.0154 93.341 14.6754C93.681 14.3154 94.111 14.1354 94.631 14.1354ZM88.571 27.4854C89.451 27.4854 90.221 27.2654 90.881 26.8254C91.541 26.3854 92.051 25.7854 92.411 25.0254C92.791 24.2654 92.981 23.4154 92.981 22.4754C92.981 21.5154 92.791 20.6554 92.411 19.8954C92.051 19.1354 91.541 18.5354 90.881 18.0954C90.221 17.6554 89.451 17.4354 88.571 17.4354C87.711 17.4354 86.951 17.6554 86.291 18.0954C85.631 18.5354 85.111 19.1354 84.731 19.8954C84.371 20.6554 84.191 21.5154 84.191 22.4754C84.191 23.4154 84.371 24.2654 84.731 25.0254C85.111 25.7854 85.631 26.3854 86.291 26.8254C86.951 27.2654 87.711 27.4854 88.571 27.4854ZM108.909 14.1354C110.389 14.1354 111.509 14.4454 112.269 15.0654C113.049 15.6854 113.579 16.5154 113.859 17.5554C114.159 18.5754 114.309 19.7154 114.309 20.9754V28.6554C114.309 29.1754 114.139 29.6154 113.799 29.9754C113.459 30.3154 113.029 30.4854 112.509 30.4854C111.989 30.4854 111.559 30.3154 111.219 29.9754C110.879 29.6154 110.709 29.1754 110.709 28.6554V20.9754C110.709 20.3154 110.619 19.7254 110.439 19.2054C110.279 18.6654 109.979 18.2354 109.539 17.9154C109.099 17.5954 108.469 17.4354 107.649 17.4354C106.849 17.4354 106.169 17.5954 105.609 17.9154C105.069 18.2354 104.649 18.6654 104.349 19.2054C104.069 19.7254 103.929 20.3154 103.929 20.9754V28.6554C103.929 29.1754 103.759 29.6154 103.419 29.9754C103.079 30.3154 102.649 30.4854 102.129 30.4854C101.609 30.4854 101.179 30.3154 100.839 29.9754C100.499 29.6154 100.329 29.1754 100.329 28.6554V16.2654C100.329 15.7454 100.499 15.3154 100.839 14.9754C101.179 14.6154 101.609 14.4354 102.129 14.4354C102.649 14.4354 103.079 14.6154 103.419 14.9754C103.759 15.3154 103.929 15.7454 103.929 16.2654V17.5554L103.479 17.4654C103.659 17.1254 103.919 16.7654 104.259 16.3854C104.599 15.9854 104.999 15.6154 105.459 15.2754C105.919 14.9354 106.439 14.6654 107.019 14.4654C107.599 14.2454 108.229 14.1354 108.909 14.1354Z" fill="#292F31"/>
<path d="M124.86 14.1354C125.7 14.1354 126.47 14.2654 127.17 14.5254C127.87 14.7854 128.47 15.1154 128.97 15.5154C129.49 15.9154 129.89 16.3254 130.17 16.7454C130.47 17.1454 130.62 17.4854 130.62 17.7654L129.84 18.1554V15.9654C129.84 15.4454 130.01 15.0154 130.35 14.6754C130.69 14.3154 131.12 14.1354 131.64 14.1354C132.16 14.1354 132.59 14.3054 132.93 14.6454C133.27 14.9854 133.44 15.4254 133.44 15.9654V29.3154C133.44 31.0554 133.06 32.4454 132.3 33.4854C131.56 34.5454 130.58 35.3054 129.36 35.7654C128.14 36.2454 126.83 36.4854 125.43 36.4854C125.03 36.4854 124.51 36.4354 123.87 36.3354C123.23 36.2354 122.62 36.1154 122.04 35.9754C121.46 35.8354 121.02 35.7054 120.72 35.5854C120.12 35.3254 119.7 34.9954 119.46 34.5954C119.24 34.2154 119.2 33.8054 119.34 33.3654C119.52 32.7854 119.81 32.3854 120.21 32.1654C120.61 31.9654 121.03 31.9454 121.47 32.1054C121.67 32.1654 122 32.2854 122.46 32.4654C122.92 32.6454 123.42 32.8054 123.96 32.9454C124.52 33.1054 125.01 33.1854 125.43 33.1854C126.93 33.1854 128.04 32.8854 128.76 32.2854C129.48 31.6854 129.84 30.8554 129.84 29.7954V27.1854L130.2 27.4554C130.2 27.7154 130.06 28.0354 129.78 28.4154C129.52 28.7754 129.15 29.1354 128.67 29.4954C128.21 29.8554 127.66 30.1654 127.02 30.4254C126.38 30.6654 125.7 30.7854 124.98 30.7854C123.56 30.7854 122.28 30.4354 121.14 29.7354C120 29.0154 119.1 28.0354 118.44 26.7954C117.78 25.5354 117.45 24.0954 117.45 22.4754C117.45 20.8354 117.78 19.3954 118.44 18.1554C119.1 16.8954 119.99 15.9154 121.11 15.2154C122.23 14.4954 123.48 14.1354 124.86 14.1354ZM125.43 17.4354C124.53 17.4354 123.74 17.6554 123.06 18.0954C122.38 18.5354 121.85 19.1354 121.47 19.8954C121.09 20.6554 120.9 21.5154 120.9 22.4754C120.9 23.4154 121.09 24.2654 121.47 25.0254C121.85 25.7854 122.38 26.3854 123.06 26.8254C123.74 27.2654 124.53 27.4854 125.43 27.4854C126.35 27.4854 127.15 27.2654 127.83 26.8254C128.51 26.3854 129.04 25.7854 129.42 25.0254C129.8 24.2654 129.99 23.4154 129.99 22.4754C129.99 21.5154 129.8 20.6554 129.42 19.8954C129.04 19.1354 128.51 18.5354 127.83 18.0954C127.15 17.6554 126.35 17.4354 125.43 17.4354ZM152.315 22.4754C152.315 24.1154 151.945 25.5654 151.205 26.8254C150.485 28.0654 149.505 29.0354 148.265 29.7354C147.045 30.4354 145.675 30.7854 144.155 30.7854C142.635 30.7854 141.255 30.4354 140.015 29.7354C138.795 29.0354 137.815 28.0654 137.075 26.8254C136.355 25.5654 135.995 24.1154 135.995 22.4754C135.995 20.8354 136.355 19.3954 137.075 18.1554C137.815 16.8954 138.795 15.9154 140.015 15.2154C141.255 14.4954 142.635 14.1354 144.155 14.1354C145.675 14.1354 147.045 14.4954 148.265 15.2154C149.505 15.9154 150.485 16.8954 151.205 18.1554C151.945 19.3954 152.315 20.8354 152.315 22.4754ZM148.715 22.4754C148.715 21.4554 148.505 20.5754 148.085 19.8354C147.685 19.0754 147.135 18.4854 146.435 18.0654C145.755 17.6454 144.995 17.4354 144.155 17.4354C143.315 17.4354 142.545 17.6454 141.845 18.0654C141.165 18.4854 140.615 19.0754 140.195 19.8354C139.795 20.5754 139.595 21.4554 139.595 22.4754C139.595 23.4754 139.795 24.3554 140.195 25.1154C140.615 25.8554 141.165 26.4354 141.845 26.8554C142.545 27.2754 143.315 27.4854 144.155 27.4854C144.995 27.4854 145.755 27.2754 146.435 26.8554C147.135 26.4354 147.685 25.8554 148.085 25.1154C148.505 24.3554 148.715 23.4754 148.715 22.4754Z" fill="#05CB95"/>
</svg>
